<svg width="722" height="157" viewBox="0 0 722 157" fill="none" xmlns="http://www.w3.org/2000/svg">
<path d="M32.168 148.824C32.168 150.777 31.7448 152.145 30.8984 152.926C30.1172 153.642 28.75 154 26.7969 154H5.99609C4.04297 154 2.64323 153.642 1.79688 152.926C1.01562 152.145 0.625 150.777 0.625 148.824V29.5859C0.625 27.6979 0.950521 26.2656 1.60156 25.2891C4.53125 20.9922 8.63281 16.4674 13.9062 11.7148C14.8828 10.9336 15.7292 10.543 16.4453 10.543C17.2266 10.543 18.0404 10.9336 18.8867 11.7148C21.7513 14.1888 24.1602 16.5651 26.1133 18.8438C28.0664 21.0573 29.7591 23.2057 31.1914 25.2891C31.8424 26.3307 32.168 27.763 32.168 29.5859V148.824ZM147.598 64.2539C150.007 61.3242 153.717 58.4922 158.73 55.7578C163.809 52.9583 170.938 51.5586 180.117 51.5586C193.138 51.5586 202.546 54.9115 208.34 61.6172C214.134 68.3229 217.031 78.3815 217.031 91.793V148.824C217.031 150.777 216.608 152.145 215.762 152.926C214.98 153.642 213.613 154 211.66 154H191.543C189.59 154 188.19 153.642 187.344 152.926C186.562 152.145 186.172 150.777 186.172 148.824V96.8711C186.172 89.5794 184.837 84.3711 182.168 81.2461C179.499 78.056 175.495 76.4609 170.156 76.4609C165.404 76.4609 161.628 77.5352 158.828 79.6836C156.094 81.7669 154.141 84.599 152.969 88.1797V148.824C152.969 150.777 152.546 152.145 151.699 152.926C150.918 153.642 149.551 154 147.598 154H127.48C125.527 154 124.128 153.642 123.281 152.926C122.5 152.145 122.109 150.777 122.109 148.824V96.8711C122.109 89.7747 120.645 84.599 117.715 81.3438C114.785 78.0885 110.944 76.4609 106.191 76.4609C101.699 76.4609 98.0859 77.5677 95.3516 79.7812C92.6172 81.9948 90.5013 84.7943 89.0039 88.1797V148.824C89.0039 150.777 88.5807 152.145 87.7344 152.926C86.9531 153.642 85.5859 154 83.6328 154H63.5156C61.5625 154 60.1628 153.642 59.3164 152.926C58.5352 152.145 58.1445 150.777 58.1445 148.824V66.9883C58.1445 65.4258 58.4701 64.2214 59.1211 63.375C60.4883 61.5521 62.1159 59.6966 64.0039 57.8086C65.957 55.9206 68.3333 53.9023 71.1328 51.7539C71.9792 51.1029 72.793 50.7773 73.5742 50.7773C74.2904 50.7773 75.1042 51.1029 76.0156 51.7539C78.75 53.9023 81.0938 55.9531 83.0469 57.9062C85 59.8594 86.7253 61.8776 88.2227 63.9609H88.7109C90.9245 61.1615 94.375 58.3945 99.0625 55.6602C103.75 52.9258 110.456 51.5586 119.18 51.5586C127.513 51.5586 133.698 52.8281 137.734 55.3672C141.771 57.8411 145.059 60.8034 147.598 64.2539ZM256.289 156.051C254.922 156.637 253.945 156.93 253.359 156.93C252.773 156.93 252.155 156.702 251.504 156.246C250.007 155.204 248.281 152.665 246.328 148.629C244.44 144.527 243.496 138.245 243.496 129.781V16.6953C243.496 15.1328 243.822 13.9284 244.473 13.082C247.207 9.5013 251.211 5.6276 256.484 1.46094C257.396 0.809896 258.21 0.484375 258.926 0.484375C259.772 0.484375 260.586 0.809896 261.367 1.46094C264.167 3.60938 266.51 5.6276 268.398 7.51562C270.352 9.40365 272.012 11.2591 273.379 13.082C274.03 13.9284 274.355 15.1328 274.355 16.6953V123.824C274.355 128.121 274.714 131.799 275.43 134.859C276.146 137.854 276.992 140.263 277.969 142.086C279.076 144.234 278.652 145.764 276.699 146.676L256.289 156.051ZM349.062 156.441C332.656 156.441 319.668 152.079 310.098 143.355C300.527 134.632 295.742 121.643 295.742 104.391C295.742 86.6823 300.69 73.4661 310.586 64.7422C320.547 55.9531 333.828 51.5586 350.43 51.5586C366.445 51.5586 379.271 55.888 388.906 64.5469C398.542 73.1406 403.359 85.8359 403.359 102.633C403.359 120.146 398.542 133.492 388.906 142.672C379.271 151.852 365.99 156.441 349.062 156.441ZM350.039 132.809C357.201 132.809 362.604 130.595 366.25 126.168C369.896 121.676 371.719 114.026 371.719 103.219C371.719 92.9323 369.863 85.7057 366.152 81.5391C362.507 77.3073 357.07 75.1914 349.844 75.1914C342.878 75.1914 337.376 77.4701 333.34 82.0273C329.368 86.5195 327.383 93.8438 327.383 104C327.383 114.612 329.271 122.066 333.047 126.363C336.888 130.66 342.552 132.809 350.039 132.809ZM595.547 144.43C593.984 145.536 591.185 147.066 587.148 149.02C583.177 150.908 577.676 152.6 570.645 154.098C563.613 155.595 554.792 156.344 544.18 156.344C529.922 156.344 517.617 154 507.266 149.312C496.979 144.56 489.069 136.91 483.535 126.363C478.001 115.751 475.234 101.721 475.234 84.2734C475.234 61.0312 481.191 43.1276 493.105 30.5625C505.02 17.9323 521.621 11.6172 542.91 11.6172C553.066 11.6172 561.172 12.5938 567.227 14.5469C573.281 16.5 577.871 18.7786 580.996 21.3828C584.121 23.987 586.302 26.2656 587.539 28.2188C587.995 28.9349 588.32 29.5859 588.516 30.1719C588.711 30.6927 588.841 31.5391 588.906 32.7109C589.102 34.2734 589.134 36.5521 589.004 39.5469C588.939 42.5417 588.711 45.1784 588.32 47.457C588.06 48.8893 587.637 49.8333 587.051 50.2891C586.79 50.5495 586.335 50.7773 585.684 50.9727C585.033 51.168 584.056 51.2656 582.754 51.2656C580.671 51.2656 578.229 51.2005 575.43 51.0703C572.695 50.875 570.677 50.6797 569.375 50.4844C567.812 50.224 566.673 49.8659 565.957 49.4102C565.306 48.8893 564.59 48.1081 563.809 47.0664C563.027 46.0247 561.953 44.8203 560.586 43.4531C559.219 42.0208 557.135 40.7513 554.336 39.6445C551.602 38.5378 547.793 37.9844 542.91 37.9844C532.168 37.9844 523.737 41.8906 517.617 49.7031C511.497 57.4505 508.438 68.6159 508.438 83.1992C508.438 98.4987 511.595 110.12 517.91 118.062C524.29 126.005 533.438 129.977 545.352 129.977C551.341 129.977 555.736 129.553 558.535 128.707C561.4 127.796 563.223 127.112 564.004 126.656V96.2852C564.004 94.3971 564.329 92.9648 564.98 91.9883C567.91 87.6914 572.012 83.1667 577.285 78.4141C578.262 77.6328 579.108 77.2422 579.824 77.2422C580.605 77.2422 581.419 77.6328 582.266 78.4141C585.13 80.888 587.539 83.2643 589.492 85.543C591.445 87.7565 593.138 89.9049 594.57 91.9883C595.221 93.0299 595.547 94.4622 595.547 96.2852V144.43ZM667.422 156.441C651.016 156.441 638.027 152.079 628.457 143.355C618.887 134.632 614.102 121.643 614.102 104.391C614.102 86.6823 619.049 73.4661 628.945 64.7422C638.906 55.9531 652.188 51.5586 668.789 51.5586C684.805 51.5586 697.63 55.888 707.266 64.5469C716.901 73.1406 721.719 85.8359 721.719 102.633C721.719 120.146 716.901 133.492 707.266 142.672C697.63 151.852 684.349 156.441 667.422 156.441ZM668.398 132.809C675.56 132.809 680.964 130.595 684.609 126.168C688.255 121.676 690.078 114.026 690.078 103.219C690.078 92.9323 688.223 85.7057 684.512 81.5391C680.866 77.3073 675.43 75.1914 668.203 75.1914C661.237 75.1914 655.736 77.4701 651.699 82.0273C647.728 86.5195 645.742 93.8438 645.742 104C645.742 114.612 647.63 122.066 651.406 126.363C655.247 130.66 660.911 132.809 668.398 132.809Z" fill="#6750A4"/>
</svg>
